:SAMPLES-PER-SECOND 30
:FULLY-SPECIFIED
:DEGREES
247
root  -1.54922 41.846 1.77235 12.3131 -84.1725 -12.2911
RightUpLeg  0.657255 1.3587 3.72215
RightLeg  17.573 -3.08928 -1.88078
RightFoot  0.147359 -0.951614 9.85132
RightToes  7.56698e-010 0 -3.6325e-017
Spine  16.2794 3.14242 7.64207
Spine1  0.983267 5.72869 -7.87847
HEad  -9.94822 -10.8493 7.43633
LeftShoulder1  2.78567 -7.39342 -19.0459
LeftArm  -16.626 -6.5259 -53.9781
LeftForeArm  6.31035 -9.09828 -9.26175
LeftHand  0.112668 6.0117 23.7363
RightShoulder  2.09449 5.27269 17.2862
RightArm  -7.66715 7.73687 51.9182
RightForeArm  -1.14362 30.3218 6.48414
RightHand  -2.67879 9.54518 -20.9452
LeftUpLeg  -26.904 -4.25065 -0.946507
LeftLeg  47.1168 6.90303 8.36804
LeftFoot  12.9653 1.00808 -4.78324
LeftToes  -3.13779e-010 -2.47553e-011 -5.36621e-011
248
root  -2.1162 41.1367 1.08537 12.049 -78.4341 -12.985
RightUpLeg  9.37537 -1.60503 6.24702
RightLeg  19.336 -10.491 -4.85019
RightFoot  3.12033 -0.358392 2.98599
RightToes  7.56698e-010 0 -3.6325e-017
Spine  15.1212 2.78629 7.04349
Spine1  1.30423 4.80096 -6.08713
HEad  -10.4566 -15.1978 9.72539
LeftShoulder1  2.61948 -7.07862 -18.1802
LeftArm  -21.2492 -2.47902 -52.5987
LeftForeArm  10.1836 3.00875 -9.3122
LeftHand  0.205639 6.72413 18.4155
RightShoulder  2.0926 4.89313 18.4356
RightArm  -18.0054 1.16406 49.5537
RightForeArm  6.44256 50.6362 13.9967
RightHand  -2.27355 8.56905 -19.0266
LeftUpLeg  -30.8256 -4.93805 -1.91997
LeftLeg  41.7619 5.01106 5.08492
LeftFoot  17.731 3.25242 -12.9911
LeftToes  -3.13779e-010 -2.47553e-011 -5.36621e-011
249
root  -2.82717 40.0405 0.509236 17.1689 -74.4724 -17.9012
RightUpLeg  16.3006 -5.19149 8.8214
RightLeg  17.2868 -10.2274 -4.21381
RightFoot  6.39699 -0.137564 1.08478
RightToes  7.56698e-010 0 -3.6325e-017
Spine  12.875 3.22871 7.2333
Spine1  0.992506 4.83479 -5.13709
HEad  -10.1157 -19.1305 11.8436
LeftShoulder1  2.62472 -7.21033 -17.8995
LeftArm  -19.3176 3.92101 -50.4664
LeftForeArm  12.1601 7.98122 -9.73401
LeftHand  0.00920245 5.64283 11.6693
RightShoulder  2.05222 4.47998 19.2803
RightArm  -25.2844 -6.86007 46.9074
RightForeArm  29.1882 73.4602 41.8368
RightHand  -1.65051 6.42134 -16.4543
LeftUpLeg  -33.3415 -4.59128 -3.11829
LeftLeg  39.4604 7.44589 6.89652
LeftFoot  21.1973 3.7162 -13.1692
LeftToes  -3.13779e-010 -2.47553e-011 -5.36621e-011
250
root  -3.32913 38.8072 0.146283 26.2086 -74.7381 -25.7555
RightUpLeg  19.2912 -5.08762 9.51923
RightLeg  16.0176 -4.53676 -1.93779
RightFoot  3.64937 -0.175022 1.69518
RightToes  7.56698e-010 0 -3.6325e-017
Spine  10.7205 4.80656 8.40259
Spine1  0.454608 6.75547 -6.96871
HEad  -9.64204 -21.9117 14.2895
LeftShoulder1  2.76778 -7.69549 -18.1365
LeftArm  -18.4289 13.5502 -47.0315
LeftForeArm  13.8166 7.73035 -10.2383
LeftHand  -0.0350766 5.17177 8.31133
RightShoulder  1.93214 4.08001 19.0371
RightArm  -31.2835 -11.6456 44.0571
RightForeArm  110.194 76.203 129.409
RightHand  -1.3583 4.57495 -16.0335
LeftUpLeg  -34.8394 -4.30253 -3.14949
LeftLeg  40.8727 10.1461 9.65722
LeftFoot  15.6971 1.87331 -7.96482
LeftToes  -3.13779e-010 -2.47553e-011 -5.36621e-011
251
root  -3.57832 37.389 -0.0749473 35.4202 -77.3216 -34.7092
RightUpLeg  20.3151 -2.01533 8.69669
RightLeg  18.232 2.91328 0.23217
RightFoot  -6.72525 -0.201403 3.81821
RightToes  7.56698e-010 0 -3.6325e-017
Spine  10.3173 6.10793 9.18191
Spine1  0.336616 8.77913 -9.91907
HEad  -10.8887 -22.5665 17.2003
LeftShoulder1  2.83561 -8.05823 -17.9315
LeftArm  -17.1033 25.4724 -43.4284
LeftForeArm  10.833 6.48112 -10.3917
LeftHand  -0.0150252 5.46817 8.42814
RightShoulder  1.81134 3.78814 18.3535
RightArm  -37.5387 -11.5742 40.632
RightForeArm  132.035 63.6977 156.745
RightHand  -1.29245 3.32978 -17.3354
LeftUpLeg  -35.397 -4.91526 -2.87796
LeftLeg  45.408 11.1968 12.3226
LeftFoot  3.90385 0.287648 -2.38003
LeftToes  -3.13779e-010 -2.47553e-011 -5.36621e-011
252
root  -3.72918 35.9995 -0.310262 36.5371 -78.6862 -37.3431
RightUpLeg  22.5283 2.07704 9.29596
RightLeg  20.9498 4.99668 1.70018
RightFoot  -17.7748 0.0505422 3.48404
RightToes  7.56698e-010 0 -3.6325e-017
Spine  11.4243 5.85056 8.32868
Spine1  1.65432 9.05642 -10.9801
HEad  -14.6243 -21.5588 19.9857
LeftShoulder1  2.8246 -8.172 -17.5704
LeftArm  -15.201 35.3445 -40.8718
LeftForeArm  7.27261 0.460773 -11.2789
LeftHand  -0.0558786 4.93734 9.69229
RightShoulder  1.75725 3.68225 17.9341
RightArm  -43.7025 -9.93954 36.947
RightForeArm  135.084 54.4185 163.495
RightHand  -1.24841 2.51955 -18.3957
LeftUpLeg  -35.6988 -6.0087 -3.58247
LeftLeg  51.5716 11.3354 15.3215
LeftFoot  -6.07357 -0.0186021 0.750029
LeftToes  -3.13779e-010 -2.47553e-011 -5.36621e-011
253
root  -3.8706 35.2495 -0.527039 30.593 -78.2793 -32.9917
RightUpLeg  25.2863 2.06283 10.5508
RightLeg  21.4208 3.31853 1.03597
RightFoot  -23.1134 -0.0337041 1.03159
RightToes  7.56698e-010 0 -3.6325e-017
Spine  12.0669 4.79668 7.20683
Spine1  4.28642 8.28811 -10.3739
HEad  -19.0675 -20.0386 21.8917
LeftShoulder1  2.89363 -8.3169 -17.88
LeftArm  -14.5199 38.6916 -40.0954
LeftForeArm  3.89625 -2.63749 -11.6723
LeftHand  -0.130303 4.20947 11.5943
RightShoulder  1.76553 3.74116 17.8407
RightArm  -46.1863 -10.6165 35.0291
RightForeArm  135.21 49.988 165.674
RightHand  -1.26857 2.43945 -18.8865
LeftUpLeg  -36.1631 -6.0287 -4.63331
LeftLeg  55.8561 10.934 17.2113
LeftFoot  -9.38419 0.00716208 2.46119
LeftToes  -3.13779e-010 -2.47553e-011 -5.36621e-011
254
root  -3.81746 35.5491 -0.553088 29.2926 -78.7894 -31.8094
RightUpLeg  24.9522 1.81651 10.5564
RightLeg  21.7229 0.345781 -0.305979
RightFoot  -21.6409 -0.0255573 1.51808
RightToes  7.56698e-010 0 -3.6325e-017
Spine  12.0119 4.22995 7.81981
Spine1  6.34154 8.17817 -11.217
HEad  -21.7079 -17.9817 22.2311
LeftShoulder1  3.08488 -8.66531 -18.8201
LeftArm  -15.8422 34.9884 -41.3984
LeftForeArm  -1.471 -1.99333 -11.3165
LeftHand  -0.101484 4.68495 15.2007
RightShoulder  1.82013 3.90143 18.0668
RightArm  -41.5054 -13.0829 37.6303
RightForeArm  136.757 52.0575 164.899
RightHand  -1.20867 2.37895 -18.0896
LeftUpLeg  -35.643 -3.4634 -5.40179
LeftLeg  54.471 11.0822 16.5991
LeftFoot  -7.08714 -0.143709 4.62588
LeftToes  -3.13779e-010 -2.47553e-011 -5.36621e-011
255
root  -3.36667 36.8243 -0.346732 31.093 -81.442 -33.0313
RightUpLeg  20.091 3.29936 8.13331
RightLeg  25.6944 -0.850604 -0.638493
RightFoot  -12.297 -0.0659997 4.55892
RightToes  7.56698e-010 0 -3.6325e-017
Spine  13.0808 3.64182 9.03327
Spine1  6.62862 8.22346 -13.632
HEad  -21.9429 -14.2318 20.2621
LeftShoulder1  3.31688 -9.14055 -19.7708
LeftArm  -18.028 26.9807 -44.8013
LeftForeArm  -7.07901 -0.119785 -10.702
LeftHand  -0.0262762 5.2989 19.482
RightShoulder  1.88816 4.07622 18.4259
RightArm  -33.4202 -13.7846 44.3085
RightForeArm  139.349 63.5341 156.492
RightHand  -0.947928 2.12818 -14.8289
LeftUpLeg  -32.324 0.742068 -6.29157
LeftLeg  45.3893 10.9615 12.2017
LeftFoot  -1.21707 -0.371624 4.5202
LeftToes  -3.13779e-010 -2.47553e-011 -5.36621e-011
256
root  -2.64802 38.4842 -0.0736809 26.0215 -83.5888 -28.0746
RightUpLeg  12.0911 3.32378 4.77387
RightLeg  33.4526 -0.661634 -0.719725
RightFoot  6.06792 -0.691437 5.16834
RightToes  7.56698e-010 0 -3.6325e-017
Spine  15.5714 1.87027 7.78312
Spine1  6.12428 6.05722 -13.0941
HEad  -20.8201 -8.10128 15.7723
LeftShoulder1  3.52712 -9.57285 -20.5632
LeftArm  -18.6241 17.1047 -49.1984
LeftForeArm  -8.05109 0.614269 -10.6869
LeftHand  -0.184798 4.38456 21.1389
RightShoulder  1.91721 4.23335 18.2844
RightArm  -27.6856 -9.01183 49.9942
RightForeArm  102.056 78.4278 102.222
RightHand  -0.988702 3.50184 -13.0155
LeftUpLeg  -26.0498 3.25025 -6.87956
LeftLeg  31.0458 8.10917 5.65938
LeftFoot  6.71376 0.289508 -1.74813
LeftToes  -3.13779e-010 -2.47553e-011 -5.36621e-011
257
root  -1.99797 39.8445 0.137634 12.773 -82.9629 -15.142
RightUpLeg  2.73658 0.61198 2.56629
RightLeg  41.7545 -1.73827 -1.99997
RightFoot  25.4074 -0.858825 3.10074
RightToes  7.56698e-010 0 -3.6325e-017
Spine  17.3195 -0.795802 3.47402
Spine1  6.26072 1.20622 -6.9804
HEad  -18.8399 -0.478703 9.65533
LeftShoulder1  3.71935 -9.9141 -21.3589
LeftArm  -16.5658 6.11248 -52.3189
LeftForeArm  -3.46314 -0.310559 -11.4739
LeftHand  -0.577577 2.02972 19.9041
RightShoulder  1.91955 4.41461 17.6978
RightArm  -23.4705 2.23391 51.6407
RightForeArm  26.8755 60.1206 16.5922
RightHand  -1.6264 6.13124 -16.5388
LeftUpLeg  -19.5173 1.69946 -6.20768
LeftLeg  19.1233 3.50289 1.60576
LeftFoot  12.1362 2.30488 -11.6386
LeftToes  -3.13779e-010 -2.47553e-011 -5.36621e-011
258
root  -1.61109 40.8475 0.385444 4.88153 -81.4127 -6.86189
RightUpLeg  -6.84398 -2.589 1.2894
RightLeg  48.3604 -4.63559 -5.92594
RightFoot  31.9283 -0.439498 1.62908
RightToes  7.56698e-010 0 -3.6325e-017
Spine  17.5347 -3.08988 -1.64314
Spine1  6.43934 -3.97675 1.13202
HEad  -15.9114 6.80345 3.43096
LeftShoulder1  3.86567 -10.32 -21.6216
LeftArm  -12.8521 -4.86783 -52.9572
LeftForeArm  0.463063 -3.12351 -12.4278
LeftHand  -0.934151 -0.0825076 19.7545
RightShoulder  1.963 4.60246 17.6665
RightArm  -20.5049 15.4964 50.7622
RightForeArm  12.6027 30.9787 5.86952
RightHand  -2.17573 7.4184 -19.9066
LeftUpLeg  -14.9155 -2.89913 -4.82924
LeftLeg  15.9897 0.811957 0.593837
LeftFoot  10.5375 3.1993 -16.7919
LeftToes  -3.13779e-010 -2.47553e-011 -5.36621e-011
259
root  -1.50343 41.481 0.770168 0.566971 -82.1513 -2.33685
RightUpLeg  -15.6454 -3.17859 0.45142
RightLeg  52.938 -7.16412 -10.3847
RightFoot  25.8319 -0.179914 1.12536
RightToes  7.56698e-010 0 -3.6325e-017
Spine  17.1936 -4.27525 -4.88626
Spine1  5.86925 -6.97259 6.4854
HEad  -13.1948 12.6345 -2.13204
LeftShoulder1  3.88151 -10.8209 -20.6949
LeftArm  -5.06353 -13.4986 -52.0604
LeftForeArm  -5.45145 -10.7302 -11.0744
LeftHand  -1.25124 -1.05237 22.4595
RightShoulder  2.0219 4.60801 18.4418
RightArm  -23.7248 23.9385 49.5572
RightForeArm  7.21151 15.8032 5.74382
RightHand  -2.24927 8.07019 -19.5514
LeftUpLeg  -10.4687 -6.74106 -4.39554
LeftLeg  20.7872 0.0843295 0.426473
LeftFoot  4.17032 2.0209 -14.7694
LeftToes  -3.13779e-010 -2.47553e-011 -5.36621e-011
260
root  -1.58247 41.5143 1.26797 -25.6782 -85.7508 23.0586
RightUpLeg  -22.45 -1.03923 -0.0210968
RightLeg  53.7237 -7.70068 -11.479
RightFoot  18.2616 -1.08738 4.63834
RightToes  7.56698e-010 0 -3.6325e-017
Spine  16.9693 -4.28033 -5.57386
Spine1  4.9802 -7.46136 8.38143
HEad  -12.2615 17.6846 -7.822
LeftShoulder1  3.75126 -11.0569 -19.2556
LeftArm  2.44336 -17.8343 -50.0069
LeftForeArm  -15.0054 -25.2567 -6.23568
LeftHand  -1.5908 -1.81456 25.5501
RightShoulder  2.01235 4.34238 19.2232
RightArm  -25.3657 25.9037 49.4528
RightForeArm  7.88992 18.0145 5.87668
RightHand  -2.33494 8.71504 -19.3758
LeftUpLeg  -3.5244 -6.50373 -5.82873
LeftLeg  26.4295 0.0459215 0.389645
LeftFoot  -0.703029 0.905918 -9.79858
LeftToes  -3.13779e-010 -2.47553e-011 -5.36621e-011
261
root  -1.88331 41.1076 1.78799 -112.931 -87.853 109.675
RightUpLeg  -27.4074 1.65447 0.328216
RightLeg  49.5921 -6.85643 -8.93223
RightFoot  17.8175 -3.41257 13.3313
RightToes  7.56698e-010 0 -3.6325e-017
Spine  16.0042 -3.87014 -5.83745
Spine1  4.11652 -7.227 9.98377
HEad  -12.9163 23.6281 -14.6913
LeftShoulder1  3.55448 -10.6032 -18.6557
LeftArm  -13.1815 -17.3932 -44.8156
LeftForeArm  -1.38705 -43.2439 -10.6799
LeftHand  -1.64158 -1.89396 25.996
RightShoulder  1.97896 4.07064 19.742
RightArm  -20.1215 25.3152 50.7162
RightForeArm  8.46448 30.6983 6.06371
RightHand  -2.36552 8.8178 -19.4877
LeftUpLeg  4.94929 -3.0006 -8.08059
LeftLeg  27.2243 2.07823 1.4877
LeftFoot  -1.75129 0.494768 -5.83596
LeftToes  -3.13779e-010 -2.47553e-011 -5.36621e-011
